<mxfile host="app.diagrams.net" modified="2024-03-25T09:13:32.775Z" agent="Mozilla/5.0 (Windows NT 10.0; Win64; x64) AppleWebKit/537.36 (KHTML, like Gecko) Chrome/123.0.0.0 Safari/537.36" version="24.0.3" etag="fjmkaWK_UQ2RjvQe9zCB" type="github">
  <diagram name="Trang-1" id="CcUU5hTk6bjeZSkGkPxU">
    <mxGraphModel>
      <root>
        <mxCell id="0" />
        <mxCell id="1" parent="0" />
      </root>
    </mxGraphModel>
  </diagram>
</mxfile>
